<mxfile host="app.diagrams.net" agent="Mozilla/5.0 (Windows NT 10.0; Win64; x64) AppleWebKit/537.36 (KHTML, like Gecko) Chrome/133.0.0.0 Safari/537.36" version="26.1.0" pages="3">
  <diagram id="ANxhg6GnGEbw1N2Y-L_t" name="Page-2">
    <mxGraphModel dx="1674" dy="738" grid="1" gridSize="10" guides="1" tooltips="1" connect="1" arrows="1" fold="1" page="1" pageScale="1" pageWidth="850" pageHeight="1100" math="0" shadow="0">
      <root>
        <mxCell id="0" />
        <mxCell id="1" parent="0" />
        <mxCell id="OtmLBJMNSFSF2v7LWi31-1" value="Elastic Search&lt;br&gt;API" style="rounded=1;whiteSpace=wrap;html=1;" vertex="1" parent="1">
          <mxGeometry x="365" y="320" width="120" height="60" as="geometry" />
        </mxCell>
        <mxCell id="OtmLBJMNSFSF2v7LWi31-2" value="Kibana" style="rounded=1;whiteSpace=wrap;html=1;" vertex="1" parent="1">
          <mxGeometry x="365" y="180" width="120" height="60" as="geometry" />
        </mxCell>
      </root>
    </mxGraphModel>
  </diagram>
  <diagram id="F9oqwG7Hox732T7DqImj" name="k8s architecture">
    <mxGraphModel dx="1050" dy="618" grid="1" gridSize="10" guides="1" tooltips="1" connect="1" arrows="1" fold="1" page="1" pageScale="1" pageWidth="850" pageHeight="1100" math="0" shadow="0">
      <root>
        <mxCell id="0" />
        <mxCell id="1" parent="0" />
        <mxCell id="C7nnOcNsXqp9adkp8GYb-34" value="" style="rounded=0;whiteSpace=wrap;html=1;dashed=1;strokeWidth=2;fillColor=none;" parent="1" vertex="1">
          <mxGeometry x="150" y="470" width="650" height="360" as="geometry" />
        </mxCell>
        <mxCell id="C7nnOcNsXqp9adkp8GYb-10" value="1...n" style="aspect=fixed;sketch=0;html=1;dashed=0;whitespace=wrap;verticalLabelPosition=bottom;verticalAlign=top;fillColor=#2875E2;strokeColor=#ffffff;points=[[0.005,0.63,0],[0.1,0.2,0],[0.9,0.2,0],[0.5,0,0],[0.995,0.63,0],[0.72,0.99,0],[0.5,1,0],[0.28,0.99,0]];shape=mxgraph.kubernetes.icon2;kubernetesLabel=1;prIcon=ing" parent="1" vertex="1">
          <mxGeometry x="210" y="502" width="50" height="48" as="geometry" />
        </mxCell>
        <mxCell id="C7nnOcNsXqp9adkp8GYb-11" value="" style="aspect=fixed;sketch=0;html=1;dashed=0;whitespace=wrap;verticalLabelPosition=bottom;verticalAlign=top;fillColor=#2875E2;strokeColor=#ffffff;points=[[0.005,0.63,0],[0.1,0.2,0],[0.9,0.2,0],[0.5,0,0],[0.995,0.63,0],[0.72,0.99,0],[0.5,1,0],[0.28,0.99,0]];shape=mxgraph.kubernetes.icon2;kubernetesLabel=1;prIcon=svc" parent="1" vertex="1">
          <mxGeometry x="350" y="638" width="50" height="48" as="geometry" />
        </mxCell>
        <mxCell id="C7nnOcNsXqp9adkp8GYb-12" value="" style="aspect=fixed;sketch=0;html=1;dashed=0;whitespace=wrap;verticalLabelPosition=bottom;verticalAlign=top;fillColor=#2875E2;strokeColor=#ffffff;points=[[0.005,0.63,0],[0.1,0.2,0],[0.9,0.2,0],[0.5,0,0],[0.995,0.63,0],[0.72,0.99,0],[0.5,1,0],[0.28,0.99,0]];shape=mxgraph.kubernetes.icon2;kubernetesLabel=1;prIcon=svc" parent="1" vertex="1">
          <mxGeometry x="350" y="502" width="50" height="48" as="geometry" />
        </mxCell>
        <mxCell id="C7nnOcNsXqp9adkp8GYb-13" value="backend" style="aspect=fixed;sketch=0;html=1;dashed=0;whitespace=wrap;verticalLabelPosition=bottom;verticalAlign=top;fillColor=#2875E2;strokeColor=#ffffff;points=[[0.005,0.63,0],[0.1,0.2,0],[0.9,0.2,0],[0.5,0,0],[0.995,0.63,0],[0.72,0.99,0],[0.5,1,0],[0.28,0.99,0]];shape=mxgraph.kubernetes.icon2;kubernetesLabel=1;prIcon=pod" parent="1" vertex="1">
          <mxGeometry x="510" y="638" width="50" height="48" as="geometry" />
        </mxCell>
        <mxCell id="C7nnOcNsXqp9adkp8GYb-14" value="frontend" style="aspect=fixed;sketch=0;html=1;dashed=0;whitespace=wrap;verticalLabelPosition=bottom;verticalAlign=top;fillColor=#2875E2;strokeColor=#ffffff;points=[[0.005,0.63,0],[0.1,0.2,0],[0.9,0.2,0],[0.5,0,0],[0.995,0.63,0],[0.72,0.99,0],[0.5,1,0],[0.28,0.99,0]];shape=mxgraph.kubernetes.icon2;kubernetesLabel=1;prIcon=pod" parent="1" vertex="1">
          <mxGeometry x="510" y="502" width="50" height="48" as="geometry" />
        </mxCell>
        <mxCell id="C7nnOcNsXqp9adkp8GYb-15" value="" style="aspect=fixed;sketch=0;html=1;dashed=0;whitespace=wrap;verticalLabelPosition=bottom;verticalAlign=top;fillColor=#2875E2;strokeColor=#ffffff;points=[[0.005,0.63,0],[0.1,0.2,0],[0.9,0.2,0],[0.5,0,0],[0.995,0.63,0],[0.72,0.99,0],[0.5,1,0],[0.28,0.99,0]];shape=mxgraph.kubernetes.icon2;kubernetesLabel=1;prIcon=pvc" parent="1" vertex="1">
          <mxGeometry x="680" y="772" width="50" height="48" as="geometry" />
        </mxCell>
        <mxCell id="C7nnOcNsXqp9adkp8GYb-16" value="1...n" style="aspect=fixed;sketch=0;html=1;dashed=0;whitespace=wrap;verticalLabelPosition=bottom;verticalAlign=top;fillColor=#2875E2;strokeColor=#ffffff;points=[[0.005,0.63,0],[0.1,0.2,0],[0.9,0.2,0],[0.5,0,0],[0.995,0.63,0],[0.72,0.99,0],[0.5,1,0],[0.28,0.99,0]];shape=mxgraph.kubernetes.icon2;kubernetesLabel=1;prIcon=cronjob" parent="1" vertex="1">
          <mxGeometry x="680" y="701" width="50" height="48" as="geometry" />
        </mxCell>
        <mxCell id="C7nnOcNsXqp9adkp8GYb-17" value="" style="aspect=fixed;sketch=0;html=1;dashed=0;whitespace=wrap;verticalLabelPosition=bottom;verticalAlign=top;fillColor=#2875E2;strokeColor=#ffffff;points=[[0.005,0.63,0],[0.1,0.2,0],[0.9,0.2,0],[0.5,0,0],[0.995,0.63,0],[0.72,0.99,0],[0.5,1,0],[0.28,0.99,0]];shape=mxgraph.kubernetes.icon2;kubernetesLabel=1;prIcon=secret" parent="1" vertex="1">
          <mxGeometry x="680" y="638" width="50" height="48" as="geometry" />
        </mxCell>
        <mxCell id="C7nnOcNsXqp9adkp8GYb-18" value="" style="aspect=fixed;sketch=0;html=1;dashed=0;whitespace=wrap;verticalLabelPosition=bottom;verticalAlign=top;fillColor=#2875E2;strokeColor=#ffffff;points=[[0.005,0.63,0],[0.1,0.2,0],[0.9,0.2,0],[0.5,0,0],[0.995,0.63,0],[0.72,0.99,0],[0.5,1,0],[0.28,0.99,0]];shape=mxgraph.kubernetes.icon2;kubernetesLabel=1;prIcon=cm" parent="1" vertex="1">
          <mxGeometry x="680" y="502" width="50" height="48" as="geometry" />
        </mxCell>
        <mxCell id="C7nnOcNsXqp9adkp8GYb-22" value="" style="aspect=fixed;sketch=0;html=1;dashed=0;whitespace=wrap;verticalLabelPosition=bottom;verticalAlign=top;fillColor=#2875E2;strokeColor=#ffffff;points=[[0.005,0.63,0],[0.1,0.2,0],[0.9,0.2,0],[0.5,0,0],[0.995,0.63,0],[0.72,0.99,0],[0.5,1,0],[0.28,0.99,0]];shape=mxgraph.kubernetes.icon2;kubernetesLabel=1;prIcon=ns" parent="1" vertex="1">
          <mxGeometry x="130" y="454" width="50" height="48" as="geometry" />
        </mxCell>
        <mxCell id="C7nnOcNsXqp9adkp8GYb-24" value="" style="aspect=fixed;sketch=0;html=1;dashed=0;whitespace=wrap;verticalLabelPosition=bottom;verticalAlign=top;fillColor=#2875E2;strokeColor=#ffffff;points=[[0.005,0.63,0],[0.1,0.2,0],[0.9,0.2,0],[0.5,0,0],[0.995,0.63,0],[0.72,0.99,0],[0.5,1,0],[0.28,0.99,0]];shape=mxgraph.kubernetes.icon2;kubernetesLabel=1;prIcon=ing" parent="1" vertex="1">
          <mxGeometry x="210" y="638" width="50" height="48" as="geometry" />
        </mxCell>
        <mxCell id="C7nnOcNsXqp9adkp8GYb-25" style="edgeStyle=orthogonalEdgeStyle;rounded=0;orthogonalLoop=1;jettySize=auto;html=1;exitX=0.995;exitY=0.63;exitDx=0;exitDy=0;exitPerimeter=0;entryX=0.005;entryY=0.63;entryDx=0;entryDy=0;entryPerimeter=0;" parent="1" source="C7nnOcNsXqp9adkp8GYb-10" target="C7nnOcNsXqp9adkp8GYb-12" edge="1">
          <mxGeometry relative="1" as="geometry" />
        </mxCell>
        <mxCell id="C7nnOcNsXqp9adkp8GYb-26" style="edgeStyle=orthogonalEdgeStyle;rounded=0;orthogonalLoop=1;jettySize=auto;html=1;exitX=0.995;exitY=0.63;exitDx=0;exitDy=0;exitPerimeter=0;entryX=0.005;entryY=0.63;entryDx=0;entryDy=0;entryPerimeter=0;" parent="1" source="C7nnOcNsXqp9adkp8GYb-12" target="C7nnOcNsXqp9adkp8GYb-14" edge="1">
          <mxGeometry relative="1" as="geometry" />
        </mxCell>
        <mxCell id="C7nnOcNsXqp9adkp8GYb-27" style="edgeStyle=orthogonalEdgeStyle;rounded=0;orthogonalLoop=1;jettySize=auto;html=1;exitX=0.995;exitY=0.63;exitDx=0;exitDy=0;exitPerimeter=0;entryX=0.005;entryY=0.63;entryDx=0;entryDy=0;entryPerimeter=0;" parent="1" source="C7nnOcNsXqp9adkp8GYb-14" target="C7nnOcNsXqp9adkp8GYb-18" edge="1">
          <mxGeometry relative="1" as="geometry" />
        </mxCell>
        <mxCell id="C7nnOcNsXqp9adkp8GYb-28" style="edgeStyle=orthogonalEdgeStyle;rounded=0;orthogonalLoop=1;jettySize=auto;html=1;exitX=0.995;exitY=0.63;exitDx=0;exitDy=0;exitPerimeter=0;entryX=0.005;entryY=0.63;entryDx=0;entryDy=0;entryPerimeter=0;" parent="1" source="C7nnOcNsXqp9adkp8GYb-24" target="C7nnOcNsXqp9adkp8GYb-11" edge="1">
          <mxGeometry relative="1" as="geometry" />
        </mxCell>
        <mxCell id="C7nnOcNsXqp9adkp8GYb-29" style="edgeStyle=orthogonalEdgeStyle;rounded=0;orthogonalLoop=1;jettySize=auto;html=1;exitX=0.995;exitY=0.63;exitDx=0;exitDy=0;exitPerimeter=0;entryX=0.005;entryY=0.63;entryDx=0;entryDy=0;entryPerimeter=0;" parent="1" source="C7nnOcNsXqp9adkp8GYb-11" target="C7nnOcNsXqp9adkp8GYb-13" edge="1">
          <mxGeometry relative="1" as="geometry" />
        </mxCell>
        <mxCell id="C7nnOcNsXqp9adkp8GYb-30" style="edgeStyle=orthogonalEdgeStyle;rounded=0;orthogonalLoop=1;jettySize=auto;html=1;exitX=0.995;exitY=0.63;exitDx=0;exitDy=0;exitPerimeter=0;entryX=0.005;entryY=0.63;entryDx=0;entryDy=0;entryPerimeter=0;" parent="1" source="C7nnOcNsXqp9adkp8GYb-13" target="C7nnOcNsXqp9adkp8GYb-17" edge="1">
          <mxGeometry relative="1" as="geometry" />
        </mxCell>
        <mxCell id="C7nnOcNsXqp9adkp8GYb-31" style="edgeStyle=orthogonalEdgeStyle;rounded=0;orthogonalLoop=1;jettySize=auto;html=1;exitX=0.995;exitY=0.63;exitDx=0;exitDy=0;exitPerimeter=0;entryX=0.005;entryY=0.63;entryDx=0;entryDy=0;entryPerimeter=0;" parent="1" source="C7nnOcNsXqp9adkp8GYb-13" target="C7nnOcNsXqp9adkp8GYb-16" edge="1">
          <mxGeometry relative="1" as="geometry" />
        </mxCell>
        <mxCell id="C7nnOcNsXqp9adkp8GYb-32" style="edgeStyle=orthogonalEdgeStyle;rounded=0;orthogonalLoop=1;jettySize=auto;html=1;exitX=0.995;exitY=0.63;exitDx=0;exitDy=0;exitPerimeter=0;entryX=0.005;entryY=0.63;entryDx=0;entryDy=0;entryPerimeter=0;" parent="1" source="C7nnOcNsXqp9adkp8GYb-13" target="C7nnOcNsXqp9adkp8GYb-15" edge="1">
          <mxGeometry relative="1" as="geometry" />
        </mxCell>
        <mxCell id="NdAA6YWBzXZRwIZ8Plmg-6" value="" style="shape=image;verticalLabelPosition=bottom;labelBackgroundColor=default;verticalAlign=top;aspect=fixed;imageAspect=0;image=data:image/png,iVBORw0KGgoAAAANSUhEUgAAAMwAAADMCAYAAAA/IkzyAAAAAXNSR0IArs4c6QAAAARnQU1BAACxjwv8YQUAAAAJcEhZcwAADsMAAA7DAcdvqGQAADHqSURBVHhe7X0LjBzHeeY6jmPZjvWyyN2Z6ffMkhQlPnZmuqq7ZynKvlixL0EcPQ0kQZALcJccEMemJCc43AU8H5CzKO5Od1d3z2Mp2bkgFi35AsRILvHBQB62XnZySA6xKclK7Fzi5Kz36eKLY4rbdfiru2dna2bJpTjTM7tTH/Bhl7vc6erq+rqq/vofc3MCUwWlWa0qgfX7SoD/u+QdNfnfCwgIzM3NqcQ+oHrmgwrBr2mRRbWWRZUAv64QtKr46CD//wUEZhKqe+RaxcW/rAb217SOQ9XQoqqPgTF8r3VsqgTmOdmrnVBay9fxfy8gMBM4ePLgDykevlP27MfV0Im1VoMqPqaKj+KU6feYai1M1RBRza8/qTXNeyofqbyd/zwBgd2Et6Rk0NxbsU6csxpxvq9FDaoGNlV9O1ZJIhj4uul734zVwKRaG1ODoPMVv/6Y4tcd7vMFBHYX1JXjByT/fZ9U/fe9YkTvozo5RnXXjhXfpooPXzfE0i8axa8DqULq61pgUr2Nqe5br+lN+0HVxTfy1xEQ2NGAfYoc1D+qBvbXtfZxqobHqOo5sepbsdYTh7VJKJuJelR8kwlLC22qt49RLXSekX3n3uJ/Nt/DX1dAYEeh4lfebqyat+te/SktMGNYUqnEZEsshdTZ4B8Ux8WZ7WsUMAoQTLV2g8IeSPHtryhN+y715PGr+HYICEwrensJyaubOjHP6r75fQOEEpiULa2YUOoxEw6bNQZFsR0y4bCvdgx7IL21THW3cb7iLT+2eBrjYW0SEJg6aG59v+aiFT1AL4FQ9ABRNduD9ISS8c0LZkM4FiztqO7ZseE3aCVcphXXecVw7ebiA2J/IzCluN5HV9/QMe8ttq2vwdmJESKqe2zpxTbtm4UyKsHAvsemmge0Yt1NaAQO1dsNKrUa54rE+vg17pFr+fYKCEwGfuXtez3z9utb6PGrH8LxnocdKhMUG1491rw6lYlJlQGhjFYwut9HDw4+7bgYWHHhoWU633bofAs/ueCju9STqtjfCEwOJR9ZhdA6uxDif957xqbXrmG6p4VjEAzMLrpvUiVAVAHrVsp+ixcvGLCYZRwUxzBaVGGisTaJRiZWXAyteAHYtmhxrUGLofV9KcSPFTef3wgIjB/FwNxXImhVCvFL8ppNpRBTKcCxFCAqBclmXPcTwsBWAkzllPC7wYGfMPub7O8uRfisjc+1qObb7BBUTimRrE04lkNMla4Non1F8ZEHvmv8fQkIjBR7woM/XCK1E6UIfU0+41CpZbHll5SS+YClg5mfJZhFa8ig7+cVCSZIlmdKn2DkANqHN7VRCS2qdx0qhda5hQDdD3sv/j4FBK4IcLYBfl8Kqf2JEtXX5S6mpRDRErzBCYqzQcsP6MvlWATTN7sxwfg4ZsvDjkNLkRMX/cbjxWbjHnF+I/BmsencYk/TasiB84jioze0NgLPYSqRelwKECx32PKLH8hvllcmmPRnfQIZRoWJBmZDK9b8BjWi43B+84buOY/KBB3rv3e+LwQEtoS+Yu7T3fopjeBX9K6dbNB9k1m9JGImYhnBrNJPDTyTU/K/G0ZeMGzZN0QkmwWTOnXCgafXoKq3HKsgnI5DdWK+qvmHVlR3UZzfCGwPxgM/ck3FtT62r2l+/UCE6GJQp8xEnBw+suVM/yDlB3Ge7BfMdpnNiHLgUIk0aIk4cYnYiWUvqtLK2mGqB4efKRJ83zUi/kZgK6ifVq9aIPgOKcCP64G1Xm6BqbYOMSgxnNRn5ybZG5wfvMDtLKkuNgPw/3ecBKuaBJa0dK+jEPBrW4o1UqV6C1EltGKJWE8WfeseadV6B99fAjOMomvacmA+Igd4XW5bFEywqZk4huXXxvlJuvTZYnBfqWAyS9oo90UXIxgKEmMB/DvxhFYTa1+swj22WPQn3P+jStNq8P0mMGMouof2S6T6gBzil+GMAoQiJ5YvZlGCc4z+ZcyleKWCmdRs009mRUsjPjPhgKuPStCrqlc7rbpLYn8za1BPqtca/qGP6UH1nN5BVI56QmFi4QfvVoJhp/J9G/XdIJh+ZmHSIBwtxNRoI1rxl57d5y7de/Dkwev5fhXYZYC1uOrWftLwlp4qh0vrRqtONQKWr42DPX7gXkow/SLZbYIBZjkGNB/FsKergCGEmOtlF31FX8V3Fk7W3sn3s8AugLRaQ5qPH5EJfkPuOFQOYdkF5uHkQI8fsEIwm5nE3yAq+XYsB8tUbd1CVa9xAc5v1NWG1dfV4uxmJ6MYHN6n+NUVLTBf1NoW87WSfNjQs4098/3qCWMrDhlAQH5JtolbOFIOfPYW5K81aaYm7DixrDWoRJxYDRpJ4BpxXlZ8s1kgNwv/tJ0K8JGSSe2EFJrn1A6mapQEcsESDL7KQ/Yq/CC5EvbPNrxodjp7h5+pkUCLbKp2wGiCnpV8dL+Iv9lBgH1KIax9SArMx+XIZH5fsl/Poh65YK4rjUfZmrtZMBmz/U1vn8MSEeJ1heCnSqR+h9jfTDlUd8kuReYjJVI/r7QxlUPm98UO5dIzhovGo4ySsyCYjD3RQH+CGboNaaPweSWA85uaOL+ZNpRO3bgo+YebUlR7QVmD5VWamcWvM0fJ5OBx8EGPk7MkmIybzm8gPqcLh8DVl6TgkA9nXvxzE8gHPSvM4dPvfxfsU4rh0XOlh2tUatepFNTW2ek8LMPAZAzZWrY4peedF/kBcCXcatM/C0wz2sRSYK5LnSqVH16iUnjkWSk4en/lpIi/yR2wTzEIvsNwrS/pAVqXu4gWohqIJZZJLWYzTLpP6RcML4x+wfAPXfDKCH1bCsy4FNTiYrQUy90a1cL6uubjxxXPvlvsb3KC8WCtoRH7M5qHLugtDC7p2fKL29D3Pbw+S1gWaJVwc7ZJtnzqO0PJBHUxszK/5Mquxf/fWSTrCzgQ9s1YZs6dvf3NBTlyzsqkysffCIwKUmhVdN9+0CDWi+UkdmOAmzOycA8Ozlwgrp05HCaRiRuOhwlHKZhN5ypD/namCH0K2TqT72OWGGTNAZeklxXXbEIuN/55C1weevsU44HaNbrnnND9xrly5xg1IocavhXrEL8RmLERIJpxO4KRQgjbTUJ4xymYfm7197PIzD8NZh65ldS/UT38nOaj+yEH9bAxILANwD5lIcJ3qIH9ZT1qrJfb7ESZasSCqT2GjJL9YgFumnH6XFRAGBtx7huEWWZjeQYpioRg8mISKp3kh1Zhmday1ksBemIhQHcXumJ/c1nY49ed687Yv/Werh1L3QbVA4caBHIIg2sLjrXAokaAhWB2MFmfJZ7QLPaoGGE6v2bRGzqY7umgs3vC2jI/LgQ4QL6vYoBPzbftF6/7zWV67cMOLUZODDOLQRwWBQhl7HQCghEzzE5m9nxgeQa50woRoje0cXz9GqZ7H3boQst6uUSs04UVkT9tAKx+im99TPHxc3LHpqW2TRciHM9HSQBXEmvCZpfkJJkg5pYP1KHzUyY/z8gNZAKiSSIM4fssY2Q/h52ZXGqwb/U3/eR/L5j0W9Z38Ixhf1kMES2EKC6Bk2fLZqmgFIK+oXr4PmnVEvE3sE+R/dqHNB89qQfWBbUFAwzKQiRFgzIHvyw4K+nszZv77E218futyd72wuQ7dex/Lr3nnj57FiYdWesKQU8z/7RZ3d+o/iFLCZc+owS1N/QIllnQWXCOwpeF4DtYCGYWuOENjXr5BaSwvr7QNs/uiWYoP7QULlWUYGlFDZde0JLTX6p5KNa8RAiZS8sGeWfJzectlyMYsTzaWWR+aelXGUzRIaJq16JKhF/UiOlqu9A/bdN5Cvh9yUHtG2qnRrV2laqkysJeNT8Z+LwYtsPLEYzgziUrvw7P2cOxEVq03IJ9avV5ldx8n+qqO/78ptdo8Bkqr9R/ouLVHy8HtfVyp0ZVskQVshQrpJbm/Mq8iTeEAClZwQ8s8QUbFMoGBztXcDcSEqtDwkErOfQM6rHegRxqB9eNoPK06h24ff70+981bAzuGBRXbKfs4UcqTXx+MYSMI1Va9o7GOoHZpcaEslE7BTplY+nF3CdSwr/B8rXp9716K3zHCu5GZlZO8NQohWCKrlMlOBpr4SFqdG6mSlB9oxQuf7ZAlnde/I38YLWsedjVAus7LGcvq8GYZB3RvFqsE8jWkgz2/vMKvpMybraSJbzU3wjuLmZnYmB+ZnsZ5olejeVgiYKHOpTxUNaWqRQ5LxSJTUoeXuTH5bSgN/VB/RTVQyd0Dz1rtGxqRBbVXEjRg9mmXvczDtrgL3bYdzHBbEdwgruTsPqAJXuSS46ltl1X2g5Vug1aJPY3iqz+TaU//maiy7SNEtur0jsM9/AdWlD7kh6i9XLLzrKnsHxWSU6rjc05LxiWcZITjRCM4KXY71XBqq2x/Y0NX6ncgaK41rocVR/X/UN3FU4W+s9vJiecfc0jjX3hkc8s+ksXKm1wUYET88TnC5wkwe9LB98vcGfpI/wMfgeuLkPZJ4ArEwwYBkaz1xl2qr9b2f9Sm1ZudkNK3J9ANJlw4Gda26QGjE1SPbt4eukWfvzmhsVm3dACtKKH6IXKGTh4BF8uHLNOTh0kM05SMGBtywTTO0FOT5N5sr/Jvva7zPgJDQ/2YvD94HV2G2HfyV58/afv8Duu/wZ+nyOHCaZHEE5SsjAGg4HeXYZx9aJCbNfIc39TO/nj76w07Y/qvvWM0VmmSnuZykEjVogdM2fGPqHkKRi+MxMiKpM6ZOBnyTCgGBJsGOXIpnLLoSowgtRADkvwpxBIUmext5QM36dvKqhMbHg2rbg2LbtQBoO/zu4j3DNUKYPvmSCgz2HZDHU92xZV2nbab+CXx53MD/m8cfCigklLeZQChxYCqIHTiKXWMlU6y3Bfzy2u2ve9/75NZujxYN9p+31l0oiNFli/oFPtWPZh3dgYaPCGR/DmQC2e2Y3zP79cbtojwd7JgzefGUthnUpnalReM2kxQN8vRM6LEln+W81f/pbuNv5G85x/UD3nVdl3LkhnbqHFh26hhfZy0tF+g1Xr0l2LlplgktLew0KcdwPZ3pN5Xlix7tmxBvfZaVC57UDp8tcXQvvbxcD+Vok431L8xrc1z37diBq03GkkLxLmB5j4A07qrCyzqCVMxcNefha82Fn8TTlw4sUHl3+EH98jh+aaP2qEECJsJ8sTz4oVEA1xBsSyIZqLD6xRC4ZZ5OCh+yg2uvD5S7EUHXmySI54Rb/+8/Mt+31F1zmqnF4+aJy2b9ZcjJWm/WMysX6hSGx3IXS+uBA5/1BcO0Yl9kayqe7aMdyvDgNpVwsGxGLGumfGkK0fcrpJgfmlQmh+Ym9g3b7g1c2FCN+4cHr5oOTZpuFZt+tN+xOGZ32J9X87EU0ilMzNafA64+SwsIzeshEiPgNMwX9Rdesf5Mf3yKE10W0GiIXFjyRk9eHJoFDyFkzmk8ascixuBlM9qP+B5h7+8P5T+4v8vWyF6x6oXbM3MO0Fgu8rhfbjcA9qu8HuU4PakD68JGC5cvH72mmEAaURk52TlTtVqkWH/1zyj/z0gn90D99HPCq/vrxHds2fU4L6nyde5+BEy3wDc1uiZRwmmE2/B8GEmGpu9Uf5+xg5LiYYVvZ6iHAuJZhRkD1sOBwFXyM4//HRq6qPPqZ88tBgnUbKzIobhH8nPxvAXg/PS4H1U6XQfrIUOVRuQyJumwkmEc1gW3Yis72HFphUi+pUD478l+LKTTLXHYP9xploiyt1WSHoM2oLsmBCUr/JGAQuxlwFIzfRbXownYJRPRQbkFjBw3+nunik0y04jy4Q62SxZb8ColFZbgEr103uuJgEuqUZKyO4p2p77u6DP8T3wXYBfaX4tU9pLWYQiMHTeJr6aYoEw2+40qlxBMutizFdm8ZqG1E1RC/BPotv96gg+eYH5AA/o7Wd7NoD7dkpZELJ6uMQFGtdiHDEf/CeU8672c1uMeteAuxvjNOH90o++iJE0LLSh1A7c0gbJkG4Z6ioNjHBMJs9hBCzBqWOkcxtYYPQyEuRv7HLZoTOK97Sr/BtHhnSAaT46KDm23+mRw32VmbmakhPe5F187QRXmSlELOQ4EKI1kttTKW29fclH/UXR3qzYP1UILWGBPVDYaaZohmGHVlAyq1JCmbjbCJxjOt3z09EMzjz8By4sW2S1SiBGHCv9iT4s/FtHilS0ZSbjZsUYp9ToOoyWJLYeQ9iouHbN42E/oZMLQshihdCREsPOXQhND1+T3KlKBJ0Bs5ukgTlg+2YCKdHMJndHVyv632C2Z54Bm5sm2Rv9aQ89i/x7R0T2KAq+UfeWwzrr7CDPC+pPsy3bVrZ8/4FRuAyj18pkvoozyVYH8FnygT901S9SPIWjBbYFA60YO/SL5gkk0udagHY30E0/EwzesGwPQSziuGXixspR0f6lrwYFkjtZ9WW9f/0rKb9DhINkFkXO7BkMr9a6NZuSG9rZP13zScPXScT/HUdVgDT0jd5CwbcSBh7s0wimP68YKw0XhY9mWbRH7VgwLVGhkO2tg1On0/P33d4/K4OQ6B41V+DtLXMjJoZIYa0d5qYzDCJG5C+ZlPDr/1X/r5Ggn8z9zbZR78NngCymyQknzhnWTAKnL20WQrZ3634lbfz7c0DtW7tbZpfbcPZAxg72F4GzmlSE3uSA22w/ZNmoWXRPW2bSms2Vd1al7+vkeDk3A/KodWtdJfBGLTOt2EizFMwBR/dBtFtLG1rnycv80HqS7CXcCO0uD/kmLeOvWkrGfydj2LmxxTYvzM3GcEklrPWoeskUv9dBapugYcsEwx4zGaCyTjkPibEYmRBtklahKptfj3gb2wkuHvurVpgRUww0zLz5iuY6m1KmF6UbwhjYiXT0sjKxBGS/z8jYp9gDGJ/flIzTCYa1cWaFFh/oXbB3AzeAOBjt3GoO03+Z8lhpcU2/aUumJdrIX9TI8Hdc281MsHM5gwzXYKBjTY8DINYn698ZGKCATDRzIMjZ+D8nQahDyAa1tbpnGGSTCyYSh0wL49TME60uHYMrilmmEHmKBigj2N4GDDDzE1WMBsHm037Lim0X1dasEyFkudTshQZoBAM39yRAwQjRxsx+AONSZkFfc2UYPpQIviXlaB6vhwcpZpfm1JzM0Qm2lTqmHQhXBKCGQeEYLaJx+5+q+rffGpfdBM1IHHhlDkgMvqOEMy4IQSzfcyfnn+X4e1/tNyt9VxDpko0QjBCMHx7J4h0P3OgIIf1x9U15gkMUaD59Mt2KASTg2Ca1dv684gNNCalEMyGEaBE0BGFoOfTAqixznK1DbmXvDmjgoEzv9ziYYRg3hxkH92mEvwCC9CC+BPY0/D3kjeFYIRg+PZOEwwX/5wS4O9JLUxZWbpgwqIRghGC4ds7bZCI+WuljkULbeZSzwoFDdxTXhSCEYLh2ztFSFzmu7W3FUL0qcKnoEJ0GkvP31NenGHB5BaiLARzBUiNABB3IgXoiwpYziCeB3JlTUI4MyoYYSXbKYLpg75i7tMI/h9aOwmsmsjBphCMEAzf3ikFm2kMDy+rBP8tK609iWhNIZj8BAMOmBeLYRGC2R5UF9+hhui7GqQuzVs0QjA5COaS3soJhWAuiV7cvErM+5hgICgvWZoN3uc4KAQzPYIBQq2YsRfl2bmCASSiOXn8B1UPERU8Adg95bSfEYKZLsHkwp0tmB6ucY9cWwzMz0FpCY3Y66qfg6OmEEz+guGXXJfKnD5y7hLBAK5pY031Gk9UolvTMiJCMGNheg4zVYJhormSBBfb5bgFc3LuBw6deu/+4yeP/yD/qxGDLc/0VeuQ5trfhDxefGm8kXNGBZPvSf9lCKZfOHyjR8ZxC2Zu7i1G89ZAX/kX9/K/GANS7+ajH1QC9Bqkv00tZ4P3PQoKweQjGBBLZgGbAcHMlYLlT5dat35X9Zx/yX7w5rLabxfsszW39gtqaJ0fq7k5N8FY0eKZBlVZssMh7ciZuQpGblZv0+CC/SXydrlg9kY4KPzWrVRq2X+le/hw+uNxioYtBVUf/SetZa1n/Tdy0QjBCMHw7R0FFiIzLDzkUPWMQ8sufmr/qaWk/N94Z5q5/aecdys++g2t5SR9PGrL2YwKJtdN/ywKphCaYemMRZXAig0opOShx3pFh8Y307DPlVat6zW38cVydIwVumWpd0clmokIJsmEOpxD2jgO5mlWnlXBSGsWq0sPZdSh3onmYTcvy5l26r37da9xzmg3EkfNUQ2uiQhmI+f2Zo7onrZDIZicBBM0qALl1SML1sBvGE00vmpnG2CiUV18qxLc8h25cyxNdj6CWUYIZnoEk+TuzeEAMwfBlEIzlLuQ5nWZar7DrgkFT9WW9Y8yqX+Y///jgrp6y0+p0fLrCivcOgLRCMFMl2AGGjoO5iQYyMqvkWWq+w6F8uZQZkPq2rQQmi/sCfFy+l/HtZ/J8BbNxb+qEnwBHjjc/xWJJjfBoNkVzHYPLnerYAzSgP0Le7uXAhTPn7HodR30P68Olyrpfx+vaE7O/YDs1YnWYqVFYt2vs7ZAnw/0zaUoBJO/YEAsvGCYOwzfyHExB8HIoRmqXYvqqWDgJQGDtBgiuhCheO9DFt0T1b443zq8l//bEYOJseJXrlZJ9fOVbp2WvSRvM9SkGeibS3EiguEtY7vcSsYLZuLMQTAqMUOoA2n4y9TwwZs4uXYJKhFDxwPXEC1GR37z4EYV53HNNOxzC95BZdE//Gf7O3WWHFAmUI/mMkUzEcEMaUfOhBf61CXByI0TEEx2bZhFpQAGqxlLkUnlNZNKfv2T/N+PAUw0N56+ER/wq88bLYfKvhMn9Wcu4009w4LJ7aRfCGZDMBmZYGAvESHol1gOrF9M/3Rcs0wP+x6sfcjw0KtalASfXZYRQAhmegQD+5phVrSRcwoEk5l4Fb8eQ6L2Umi9tuDhxFEzBxhN8xd13z4Pg/GyzM25CcaaYW9lIZiBNsADgEpebKYBi08b2mV+02gu1fnPGhfUJnqAxdAwAZssd/Ml3+a5CWaW3ftnWTBgJevb9PcT+gIKrMrM16seGx0TCik9XV7tmZvHCvWkepXm185qZywqhSakob107uYZFUy+VrIZFMymcxjfoToxNxFKrGfnCTKpx1Jgxgqpx/oZRNWw9nnVPXIt/5kjRuqoeaQkhdU/LD6M6UKrHhcjk4l4oM96fScEwzd35BCCubhglMCkEogGlmewye1iqnr1DuRU5j93xEhE49Vvnm+Z5wprmEIbdA8K9A7pN9Z3QjB8c0cOIZhLC0buiaYeywGKweZfcqv/ru8jx2o9u8G3jpcC6zvlANEDq/XYcLcyBEBuZ5vKQjDjw3YPLmddMHKAmFcxCEaObFoM6/9UIkd+hv/sMYCJsbTq/EzZxecPeIgarhmDIYA/2EwcSW2qdGDPIwQzFgjBbFcwyQxcIjguBDgudhFVo6P/oDVvuo3//HFBcc3/YLTr62pkUoVsFgwYLnRPCIZv7sixXcHkxpwFoxNniOPgVoKxaInYMbjPFMN6rKzVqNI6ck5aPXSIv8aIkSz5TqpXFYOlNQn2M7CETvsse5GBYDQhmPGCFwzMHv0zyK50viRmqHYS58vNgkmcBpVgg7AUS5gF0FlUAhKwWNWo8lCdSsHSE0qnWkg/fqz7mavPWNcXgvrvlbrQjqQWDexpKi6mZdehumdTtW1SWQhmPOAFwy+5dqN7f/85zKBg0oPLi9KmErHgXITKAcw04A1gnp3ze+0dl2jY5867WCuE+E9ZEJyPmBGg0sTxYjMRjCYEMz5sVzD93OkhyrxgkiVXsrHn73U47Z5o2N/A8qhl0ZJvnoJE5Pz1RozE3ExqSA7Qt/W2zWaYMqMQDN/ckSMTTJaZXwhm8H4TWhz7REPsGPICyJH1/ZJX/yh/vXFB9czb1Qj/X62dJAeEPYzh2VRv57GHWYYZefYE0wtR3sIKJgSTMRHIMGaikdo2LXbwawsBvpO/5rgge+iE1LLOl8DfjdhMMEYLPBTGKZjpy0uWv2AuEdMvBDMoFF40C6EVzz/coIUW/t9F33bYxcacHBBCnOeD+spCF3zfLGq4WAhmnJhFwfBWsn6rGLMIDiVL/LcFbSoTixZCi+5t27F0BkSI/0Ihh/X0kuMSDfvcPeHBH15oVR9RO4jqnhmzPUxuguHDknMOTwYKwYxXMJvPYQbd+98sZfAEALM07Ac7rJryFwortRvSy45HNOkMpjSVguYdeUJbs6jcgfOiWk6CGTy76rc45kKRKnZnCga4EfCFKGzGZR+tFbq1d/JtGDF6jppyZD8v/8YttBjggP9PI8EUCibXeBghmNEKBthzjIQ3X2TFqo//I9+GkSOdaUou/qAU3vLdBb/xaf6/jARCMNsTzG46uBy3YIBMNODrBWloA/xGedX81+zi4zYCgFHj9HtPlNxbyViWgUIwSUEldg4jBDNSQpJxcJDUI5tW/Por5ZXD43+gc3NzkFR9v/ve/WBB4393xWCCma5EfrkKZrsn/UIwb44w00BmzUqEqOYv/XWJ3HQkbcbo3/55YAoFk+umnxfMxJmDYPhzmMGHnXFI+y6TmRFA99G63oZzHvPxQreh8G3aMRgQzOA95848zcqZYNhZA9+QSTBPwbCsMeMVDJDtZ6B4Euxp2jZYzn674qOr+XbtCMy8YLYZopwbd6FggArUgEmXuHBGI7somvuj1FEzB0PAyCAEsz3BZHEyGfnfj4y7VDD91EKoRWPHEkEf59s29cisZLPqfHk5ghlmdh45d7lgMnMzlB+XCfrn4kYBp50xy8y8e78QzBChjFcwiWhQrLag32vflsNaXgWcrhxCMLMnGN75clAo4xMMMBUNi5ZM4u9rf7ngLt2YNm+6RSMEM3uC2X4SjCHtGyHhYBPSvxYfsuhCiP/whmaaF2CajQBCMEIwg0LJRzCMUP0swLFyxoEUTp+Z+8gHxnLPI4MQTCKY7CxmoDEphWDGQOhPFouPY2Z9bDu0mE8BpzePmRfMNk/6hWBGzyT5XpL1BQgOsEpknV8I0S/wbZ4aCMFsTzDALFEG//ORcoYEA2Szuo9Z5he9WV+HMxql47xWaNY+xLd7KiAEs33B5MIZFAzsHTUP07JnMUfNUgtTLbD++sCDjp02eXqMAEIws+etnKfz5XaZpbhi/e+huNJp0Apx/kx1sca3f6KYUsFMzFt5K8FkkZYZBxo9KuYpmAkcXF6MbMnroRj2NbqH43J7mepN6/eVTx66Lm365GeaKRTMVMbD9HM3CUafMsFkM4zuwb7GjstRg+qruD0VYgEIwSQRl9lyYFYEo3ccWoZSF1CAKM1LBpn6p0EwmWg0yGKZJufTXfzvp0I0IJjQiSpnjrHzo2nY++YqmO3G9OcimMRiFFe6y9Qg1ucrYxMMDvX2dAsmEY1NNc+K9cCBF8g/Gqv4X/H3kjvunnurFjpR+cwxllZKCGbCggE/q3KnMVbBGB4OjRYUUnKoyjJXTqNgLBAzzDKx7tmxETm0HDa+ozVRbgWchuLuubcqoRUZa8u0RMx1/h4mwjw3/VMrmMD+ncpG+YiRouLisAwJvAObKiEkFt+oA7NVFsyBto6J2VlXIh4QDTM5x7qLY6PtwPd/Ja1WswJO+S/R7p57qx7aJBNMfx/x5O9tbMzTrDxNgtEg7SpseNsO1QPr98YlmH0u6lY6IBgrFczgPfLk2zpuDu5nIA0siMamqmd+af704b3p7eQuGjXEnzDOHIPyHjHfT+MeI0M5y4KRPTNmNU98/JX5+w6/i2/vKLDPMz9XWYPZBcfyDhBMJpr0+9howYvF/Ox1D9Su4e8tB/yA6iNf7zbA722d76dxj5GhnEbBZPHo4z7AZHEiLViKoJeMU3gxbeYo3qLsM/adrN1Q9tBXjDVIQo5jmGFYvcghD32SggH2L8+YSxLMNJC+CEoFtqBArb061629jb/RcUI9qV6l+OhP1I5NJR+qSg/2lRBMKpiBho6JrLN9fEF17Z9PmzkKwTCobu1WjeCXtJZNVZhdplgww8jKjZNqLLUQldrL50vEOcHf45jAnoEOlc8Ifl2KcFqGfbCvdrVgtntwmadgwBlRa7OaK/9t1CXwVA89oK81ktklnWH4hz2MA22cAJNnAUFn1VgK6rEaLVPFc76nrpo/1XeLI3u5DIPsoa7chuoAW4uFjZc8+2ySgmFxGZxgmNWDb+QYyWLeYSC37H8sEpwkiRhBFGLJw4eVlvU3IEZ2Ss0O3qC+y+YHPYx8GyfB5FmANa8Wy2D29p1YD5epFuCXlObRu/pu9Yr7ahik0PyAFOFXpRar4MwEw/fTRPpskoKZBvYSeXca8P1fXpEDYiq0g3cf/CGFoEc1lk/Litm+IACPZYtdM/e34hUxKTeusLZbMez55BZ6pUDQL43ixTIMxRVznxygv1S6UDwKQ4qoWJqS/oLnBucwuRxcbjdEOU9uZFbBsRFZVPPN31NDc4Fv++VA8Wu/rkVMJOx0mollxwpmg1lfsSJKbet8KTAf2hMuVfj7fxPoCa8U4cMKwU/Cvg+Sq7PrpUsyvj2TIDy33E76p1EwwCQfMUQkQvZ7doD3Bblp3sQ1/y3pG3WD3Bu2sLLvBo0cdvWgSvVWTyDxbhMMY2RRpQWpaPE3ZR99zPBqw3M4Qx9dot8A86cPv0vxrZ9Wif282oKk7dbGtdI+49szCU6VYCay6U+Zee0y4UTgiIj/WvPNjxS8g8MHQh/e89D+d8vB0k/o4dE/MqIlWg5rUKcFHvrG7JKSv+5OIwxgLakSAC8YaoQWy66pBOhrhRB/ohTUbt23UTrwkoD/q3vVH9d99Fnmy9ZyqOrbVCEww1hT4aHcz3wFE5g/KsMaGDZN4A6SvD3ipNhp32Z4SEPHzd7BXXbKDcszaGeI/rQYmKdkgj+suRgvuvjGm1fsA2Uf10oR+rFCZP5qMURfkIn5vTIcgromZM+PdYI2ZpZdJBgg9BOEOZddBJWUY9XDrAx66aEGLYT41WJg/7Hs24Hq43+rN+0fW3SXcbn53pvUleMHSqRxpBQ0bi0R9LNysPSgHCz9sRwsfU/rQt/YIJZY8dPvGQevnyeZUQFyVbOxmrgw6aFFjdP4g/z4HjmUpv0+LXRitW0lVhgfNnRWLDGnxOkQDHMNgU0uaxuiMmw84aQ+wN/VPfT3i038zRtX8DfLTfx3EkGvSXAva7CEsKnebCQOjL4dg6s8L5bdJJiyh2kFyo57idd3idhxIbDiQsuhJTCls3zI1rruWa8ZbuPvDa/xLd1d/qZMjv2vUtB4QQrQ99Q1k8prdSq16rQUmHGyZ4FZJRPL5AXDxmRmGIL2tB1qhA262LR+hB/fI8fh+97/rkrTOaG5+Dmt3aBKy6ESgUTZVlwKYNbZEE1PPEOWbnkQ3ijMOpNWKwaTMMw4sAQphxZ7y4DFj7WRrbWzhz34WbuNvdk4e8kQtmJI+irAySY9rfAMJns9dKgeOVSD5VbLoXIELyB4KZlUImYMZINyyLUmRRh38MKUSD2GA1y4h3LrGNXc5W9ofuP++d98/1hcqYai8qBT1lzc1In5QqULm2yTTXvQyfyJ7qQEA+yfjtm/e5vQwZ/xf7ub2X9+ln3ln1N/v/T6bQj5z54KpsuvTPjGGuxp0Ut60/L1FXMfP55zw2Lz0LGKf+SRinv0gtGGGBEQTOIGkQmHfxCCguNiT8Rs+ZV4gCgEX1AD9Ki2evQ4P37zRM+sWDhZeKfuHb5TCapfliO0LnVtZhDIDqwyG7wQj+C42C8UcMhl3hngykTwk0qA7gaT97CxOwn0Lv6eU/vfXQzMe0shek6BTXbbYh6qbG3MfJqEYARHT1h6wVmZ4qN1Dc7OOhADhJ5XCPq4sTmkYaJC2RJSuFQp+siXWtZ3lDWHefjKPmwkcRLXPeSmBQUvl+mMQsEkziyYXfAoxy/KvhmAaw4/LqceeyLbKYXOWcVvnDfA6Q9SFLG1JSzXzBj2O3wnCAoOY8+pFyxzMHaYfxyOdb8BuQvg3O2CGuDHZA9nxaZ2FPr2N7V3ak3nQ7pnP2kQex3CiUEwYOoDl/OptbIIThVTEzEbMzIzEyeh6YZvx4Zrf8U4Xb9j/vQmM/F0Lr8ugV6jYS2p+7V7Fb/+vNbGVG5DBySWDBY1OaSTBAUzshN6tqTHMYwdtQ0/M/9Kc+sf78v0uWnM7QqUvKOLCqmvKiF6AcJWs9xiQjSCWzEpV5gkAYSk8HKEX5KI6RVWagf48bVrobqmrQTmI4qPLqgQ/puetrMKW2KZNvPMxgD7Ci9VCBUgeF0J6o8WSK3Bj6fdjI39Tbf2Tomgn1QIfkoNrXUIbGIbO2ZRS85voNPgJHpY/gDB3cH+57rpPAV+37KoGlnrCkFfLfm1u6bpPGVigDWoTNAJOUDfkGHKhZBWEIxvQrlt5n0MDoLgLJj5PfGdLrjzCAfZWRRm4mHOfNPYixLCmtlYIOh5yUf3F/+z+R5+3Mw8im59fymoPShF9ZfULkQ5mlT36rHhmhTc0Cvgip6Khu98wZ1FWEkUIkznI+bvBSEVtOzWYyU0aekhTAvt+sslUl/tK68usBUK3uFlLag/AgJZDDGtQOwGxLe4SY1HsSzb+YTlViFE8d4Wm2UgIw9VOpgWWibd2609uhAu3cKPC4GLAM5v9p9Gdy266PEysdaNCAKTehY1YRTY4YRQgGKA44UI01LXpsWOtV5ooSdvCKv3cPsUgW2gt5lT3SPX6q55r+KjZyEIDIK9YH8z1a7lglsSTMTZs2N71TM2zDTfmA/Rx69p7eLzlLxRauPF+QitLET4JfVM4i2ggAk6nd75ByM4TUzSPKVk1i+961AlRK8UiekWyAydp+SNG0j1mBJYj2gevgDLNGYAgHSojGLGmTYms0kS8Qh5HyA8WCHoghKgRyW/PtH4lJkB7G90D9+52ERf3u/V1432EpXCo0keYSGaqWFyngIzSj2WIRl52Igl0nhS9k2xT8kRvbXtwZPHf3jRO3yfTm5+Vj1zhKqtOhgF1tM18sADFMyH2R5F8fG6Cpl7YO8ZouckYv3K9SfR1Zsfp0DuKAYH9mnkZlcN6y+ymAhItpf6p4kZJz/2XlRZeDB7Fvhl2UNE7FOmEMpK3dEIOqv4+LyahKhussrwD1hwNOzNKCwzD3gSQwI/9EYSn1LbkfEpMwPY30ieebvi4yfVEK9DuGr21hPCGS17/Zl+ZaHBLI4ePV1qDvh9CUwzIP5G9c17lRA/wxIiRLBMA7EkyTkgjSkkdZtU0sGdyl4yk+zFA8sv2Kd0wEyMn4M4ejg745+HwA5BMTi8D+JvtAC/CA9VDqC4DyQdhMw2Sd0SIZjtERL8SQFL3Mc8yjUCif2OUTVwXlGI7aouFn5fuwWaW8UKsc7KPr4AJs5SmFbF6ou9ENya4MoCnsUlCBEOTQqlLDTPuqAHy48VV2ynr6vFCf1uAexvVK96u+FXny6H1XWjZbKMnZDJXuxvhrO3oc+y/nRsiHiMFWJ+VWnW7oKYJr6fBXYZIP6m4h05UQ6WnjHaiELhpD6jwMCgmVX2zPKwT4GSGG0bqjY8JwX1+6XVg9fz/Sqwy1EgNx+Q/fopNcQvpxaevvMb+JqkhOIH0m7mxoyyEUfPLI0Ev6a4aEXx0UG+HwVmDMqK7SgEnWUDBEJie8KB/Fe1WCX1ZDCxGji7o9xFQngZbLwQMhNxTyjQF+y+0WNyEx3j+01ghiGtWu8oefhOiVhPKJG1brTqVPePAGOVLKUl56DEw24TjMkIIRMlguMSFKCC4rqhEyue9ZTsW/fA3o/vLwEBhmvc49eWiHVCDw6eW1y7kZajQ1T3l1h+AaiBk1Qi5gfeTiQIpU6VoBZLQTUG69d8B9P5Tzl0PrKflXz7fuWTy/3xKQICW0Nr7d+vkn2n5eDIq+qZOpXCOssLzWJwdrhFLWl/HZabVAprsRQuUeVMlRbbS6/NR9XmgtinCFwGNp0j7AkPL5fatbNSYL6hdtLZZQeboXvtZvEpdap061QhRy8orUOPSuGNfBy9OFMRuHyonz5+VclDd0vE/LISohiSNWTJsHeSaDITMbQd0vWqoUllUn1CJksfllald/D3LSBwRcjq30ih+XVtzdnwT8scEPsGJ+ROy8gP3HGRv14vfLuvjaxeZdehWoCeUUj949dtrp8iIDB6aG59v+KZrhLgl9Quq84MA5MVjcoKo/IFV/nBPWrqJKmGDIQ0VOAgCa4/rIgVKwufnqcE+BXVQ77w+xLIHUXXtEuh/dliYH1f7kLhKFj2YPYmh9LnfKVifpCPiiCQLDMoEK6dVn2LSxGipS6rkHxeDqzPKdEmvy8BgXyhnjx+1QLBdxRC/IQS4liHUAIQC1TFgjS3OQgGPjsTi+EiqnlpbdE1m5baiBai6tOloHY3nDXx7RcQmAhY/Ruvep8RmF8vt2yqh9ZAUvVxkSVrd1GcEMfs2lCYt2U9IxH0K8rmfF8CAtMDdaV2wGiiVdXHL0M16WLLoiWIuRlTfgFmJmY52qAsROIgqRL8qkKwK/y+BKYdvXMLidTQQgs/uqeFz0trmWNn3+AeMvgvh6nfF/vKoiC7EOOD3pAi/LnSKrKGtUlAYLpxUr3q+m79zmKAnoZYd3j7M1NvYhh4U8JJDx4TT2KIeoTPhPzEIfrqvG/eo35avYpvhoDAjgLkDJbJ0gk5tM7J3WNUjpap4ttp+MCgKLYimIbBbM3+Ds5ToMBugJ+VCL6vGIj6KQK7DFDrpBg0ThWDxqtKZ5mq4P2czhhbudpkP4f/IwVoXUkDuTSC/o/mohW5ad7EX0dAYKcD9hG9vcRe17SloPaoQszzLOYkjb/JBNIvFvZ9Lz7FpobvnC971ueMzfm+xD5FYHej4lfergRLd6oeekINcQxi6PeE3ph1EqFoMLN4+Kly07qn4n/g7fznCQjMBCDmRPbwRzWCzkEaKNibZIWjWBx9x6ZagJ+RffNeadUScfQCAgCV1A6onvkgxM5rkBgvqSj9ukLQqjhPERDYAkqzWlUC6/eVEH9Bbi7V+d8LTBb/H/bu8dvfZ9TmAAAAAElFTkSuQmCC;" parent="1" vertex="1">
          <mxGeometry x="550" y="490" width="34" height="34" as="geometry" />
        </mxCell>
      </root>
    </mxGraphModel>
  </diagram>
  <diagram id="tKHlywwEOOHxpPH3c1-M" name="Git Workflow">
    <mxGraphModel dx="1050" dy="618" grid="1" gridSize="10" guides="1" tooltips="1" connect="1" arrows="1" fold="1" page="1" pageScale="1" pageWidth="850" pageHeight="1100" math="0" shadow="0">
      <root>
        <mxCell id="0" />
        <mxCell id="1" parent="0" />
        <mxCell id="2z3PSl_iK4pZrVuzP7k2-7" value="" style="rounded=0;whiteSpace=wrap;html=1;" vertex="1" parent="1">
          <mxGeometry x="712" y="45" width="298" height="450" as="geometry" />
        </mxCell>
        <mxCell id="2z3PSl_iK4pZrVuzP7k2-27" value="prod" style="rounded=0;whiteSpace=wrap;html=1;labelPosition=center;verticalLabelPosition=bottom;align=center;verticalAlign=top;" vertex="1" parent="1">
          <mxGeometry x="801" y="210" width="120" height="120" as="geometry" />
        </mxCell>
        <mxCell id="2z3PSl_iK4pZrVuzP7k2-6" value="" style="rounded=0;whiteSpace=wrap;html=1;" vertex="1" parent="1">
          <mxGeometry x="380" y="45" width="332" height="450" as="geometry" />
        </mxCell>
        <mxCell id="2z3PSl_iK4pZrVuzP7k2-26" value="staging" style="rounded=0;whiteSpace=wrap;html=1;labelPosition=center;verticalLabelPosition=bottom;align=center;verticalAlign=top;" vertex="1" parent="1">
          <mxGeometry x="486" y="210" width="120" height="120" as="geometry" />
        </mxCell>
        <mxCell id="2z3PSl_iK4pZrVuzP7k2-5" value="" style="rounded=0;whiteSpace=wrap;html=1;" vertex="1" parent="1">
          <mxGeometry x="20" y="45" width="360" height="450" as="geometry" />
        </mxCell>
        <mxCell id="2z3PSl_iK4pZrVuzP7k2-25" value="dev" style="rounded=0;whiteSpace=wrap;html=1;labelPosition=center;verticalLabelPosition=bottom;align=center;verticalAlign=top;" vertex="1" parent="1">
          <mxGeometry x="240" y="210" width="120" height="120" as="geometry" />
        </mxCell>
        <mxCell id="2z3PSl_iK4pZrVuzP7k2-24" value="onthefly" style="rounded=0;whiteSpace=wrap;html=1;labelPosition=center;verticalLabelPosition=bottom;align=center;verticalAlign=top;" vertex="1" parent="1">
          <mxGeometry x="55" y="210" width="120" height="120" as="geometry" />
        </mxCell>
        <mxCell id="2z3PSl_iK4pZrVuzP7k2-17" style="edgeStyle=orthogonalEdgeStyle;rounded=0;orthogonalLoop=1;jettySize=auto;html=1;exitX=1;exitY=0.5;exitDx=0;exitDy=0;entryX=0;entryY=0.5;entryDx=0;entryDy=0;" edge="1" parent="1" source="2z3PSl_iK4pZrVuzP7k2-9" target="2z3PSl_iK4pZrVuzP7k2-16">
          <mxGeometry relative="1" as="geometry" />
        </mxCell>
        <mxCell id="2z3PSl_iK4pZrVuzP7k2-21" value="MR" style="edgeLabel;html=1;align=center;verticalAlign=middle;resizable=0;points=[];fontSize=13;fontStyle=1" vertex="1" connectable="0" parent="2z3PSl_iK4pZrVuzP7k2-17">
          <mxGeometry x="-0.184" y="-1" relative="1" as="geometry">
            <mxPoint as="offset" />
          </mxGeometry>
        </mxCell>
        <mxCell id="2z3PSl_iK4pZrVuzP7k2-9" value="develop" style="rhombus;whiteSpace=wrap;html=1;fillColor=#95D4FF;" vertex="1" parent="1">
          <mxGeometry x="240" y="210" width="120" height="120" as="geometry" />
        </mxCell>
        <mxCell id="2z3PSl_iK4pZrVuzP7k2-10" value="Platform Dev" style="text;html=1;align=center;verticalAlign=middle;whiteSpace=wrap;rounded=0;fontColor=#007FFF;fontStyle=1" vertex="1" parent="1">
          <mxGeometry x="155" y="60" width="90" height="30" as="geometry" />
        </mxCell>
        <mxCell id="2z3PSl_iK4pZrVuzP7k2-12" value="Platform Preprod" style="text;html=1;align=center;verticalAlign=middle;whiteSpace=wrap;rounded=0;fontColor=#007FFF;fontStyle=1" vertex="1" parent="1">
          <mxGeometry x="515" y="60" width="105" height="30" as="geometry" />
        </mxCell>
        <mxCell id="2z3PSl_iK4pZrVuzP7k2-13" value="Platform Prod" style="text;html=1;align=center;verticalAlign=middle;whiteSpace=wrap;rounded=0;fontColor=#007FFF;fontStyle=1" vertex="1" parent="1">
          <mxGeometry x="847" y="60" width="90" height="30" as="geometry" />
        </mxCell>
        <mxCell id="2z3PSl_iK4pZrVuzP7k2-14" value="feat/description or fix/description" style="rhombus;whiteSpace=wrap;html=1;fillColor=#95D4FF;" vertex="1" parent="1">
          <mxGeometry x="55" y="210" width="120" height="120" as="geometry" />
        </mxCell>
        <mxCell id="2z3PSl_iK4pZrVuzP7k2-15" value="" style="endArrow=classic;html=1;rounded=0;exitX=1;exitY=0.5;exitDx=0;exitDy=0;entryX=0;entryY=0.5;entryDx=0;entryDy=0;" edge="1" parent="1" source="2z3PSl_iK4pZrVuzP7k2-14" target="2z3PSl_iK4pZrVuzP7k2-9">
          <mxGeometry width="50" height="50" relative="1" as="geometry">
            <mxPoint x="520" y="310" as="sourcePoint" />
            <mxPoint x="570" y="260" as="targetPoint" />
          </mxGeometry>
        </mxCell>
        <mxCell id="2z3PSl_iK4pZrVuzP7k2-20" value="MR" style="edgeLabel;html=1;align=center;verticalAlign=middle;resizable=0;points=[];fontSize=13;fontStyle=1" vertex="1" connectable="0" parent="2z3PSl_iK4pZrVuzP7k2-15">
          <mxGeometry x="-0.1924" y="-2" relative="1" as="geometry">
            <mxPoint as="offset" />
          </mxGeometry>
        </mxCell>
        <mxCell id="2z3PSl_iK4pZrVuzP7k2-19" style="edgeStyle=orthogonalEdgeStyle;rounded=0;orthogonalLoop=1;jettySize=auto;html=1;entryX=0;entryY=0.5;entryDx=0;entryDy=0;exitX=1;exitY=0.5;exitDx=0;exitDy=0;" edge="1" parent="1" source="2z3PSl_iK4pZrVuzP7k2-16" target="2z3PSl_iK4pZrVuzP7k2-27">
          <mxGeometry relative="1" as="geometry">
            <mxPoint x="620" y="270" as="sourcePoint" />
            <mxPoint x="850" y="270" as="targetPoint" />
          </mxGeometry>
        </mxCell>
        <mxCell id="2z3PSl_iK4pZrVuzP7k2-22" value="vx.x.x" style="edgeLabel;html=1;align=center;verticalAlign=middle;resizable=0;points=[];fontSize=16;fontStyle=1" vertex="1" connectable="0" parent="2z3PSl_iK4pZrVuzP7k2-19">
          <mxGeometry x="-0.1257" relative="1" as="geometry">
            <mxPoint x="21" as="offset" />
          </mxGeometry>
        </mxCell>
        <mxCell id="2z3PSl_iK4pZrVuzP7k2-16" value="main" style="rhombus;whiteSpace=wrap;html=1;fillColor=#95D4FF;" vertex="1" parent="1">
          <mxGeometry x="486" y="210" width="120" height="120" as="geometry" />
        </mxCell>
        <mxCell id="2z3PSl_iK4pZrVuzP7k2-30" value="branch" style="rhombus;whiteSpace=wrap;html=1;fillColor=#95D4FF;spacingRight=0;spacingLeft=100;" vertex="1" parent="1">
          <mxGeometry x="34" y="416" width="35" height="35" as="geometry" />
        </mxCell>
        <mxCell id="2z3PSl_iK4pZrVuzP7k2-31" value="environment" style="rounded=0;whiteSpace=wrap;html=1;labelPosition=center;verticalLabelPosition=middle;align=center;verticalAlign=middle;spacingLeft=129;" vertex="1" parent="1">
          <mxGeometry x="38.25" y="455" width="26.5" height="26.5" as="geometry" />
        </mxCell>
      </root>
    </mxGraphModel>
  </diagram>
</mxfile>
